<?xml version="1.0" encoding="utf-8"?>
<!-- Generator: Adobe Illustrator 17.1.0, SVG Export Plug-In . SVG Version: 6.00 Build 0)  -->
<!DOCTYPE svg PUBLIC "-//W3C//DTD SVG 1.1//EN" "http://www.w3.org/Graphics/SVG/1.1/DTD/svg11.dtd">
<svg version="1.1" id="Layer_1" xmlns="http://www.w3.org/2000/svg" xmlns:xlink="http://www.w3.org/1999/xlink" x="0px" y="0px"
	 viewBox="0 0 492 80" enable-background="new 0 0 492 80" xml:space="preserve">
<rect x="432" y="2" fill="#F3F3F1" width="12" height="12"/>
<rect x="384" y="34" fill="#F3F3F1" width="12" height="12"/>
<rect x="368" y="34" fill="#F3F3F1" width="12" height="12"/>
<rect x="352" y="34" fill="#F3F3F1" width="12" height="12"/>
<rect x="464" y="34" fill="#F3F3F1" width="12" height="12"/>
<rect x="464" y="18" fill="#F3F3F1" width="12" height="12"/>
<rect x="464" y="2" fill="#F3F3F1" width="12" height="12"/>
<rect x="384" y="50" fill="#F3F3F1" width="12" height="12"/>
<rect x="368" y="50" fill="#F3F3F1" width="12" height="12"/>
<rect x="352" y="50" fill="#F3F3F1" width="12" height="12"/>
<rect x="464" y="50" fill="#F3F3F1" width="12" height="12"/>
<rect x="480" y="50" fill="#F3F3F1" width="12" height="12"/>
<rect x="480" y="34" fill="#F3F3F1" width="12" height="12"/>
<rect x="480" y="18" fill="#F3F3F1" width="12" height="12"/>
<rect x="480" y="2" fill="#F3F3F1" width="12" height="12"/>
<rect x="352" y="66" fill="#F3F3F1" width="12" height="12"/>
<rect x="448" y="66" fill="#F3F3F1" width="12" height="12"/>
<rect x="448" y="50" fill="#F3F3F1" width="12" height="12"/>
<rect x="448" y="34" fill="#F3F3F1" width="12" height="12"/>
<rect x="448" y="18" fill="#F3F3F1" width="12" height="12"/>
<rect x="432" y="66" fill="#F3F3F1" width="12" height="12"/>
<rect x="432" y="50" fill="#F3F3F1" width="12" height="12"/>
<rect x="400" y="66" fill="#F3F3F1" width="12" height="12"/>
<rect x="400" y="50" fill="#F3F3F1" width="12" height="12"/>
<rect x="400" y="34" fill="#F3F3F1" width="12" height="12"/>
<rect x="368" y="18" fill="#F3F3F1" width="12" height="12"/>
<rect x="352" y="18" fill="#F3F3F1" width="12" height="12"/>
<rect x="400" y="18" fill="#F3F3F1" width="12" height="12"/>
<rect x="384" y="2" fill="#F3F3F1" width="12" height="12"/>
<rect x="368" y="2" fill="#F3F3F1" width="12" height="12"/>
<rect x="352" y="2" fill="#F3F3F1" width="12" height="12"/>
<rect x="400" y="2" fill="#F3F3F1" width="12" height="12"/>
<rect x="384" y="66" fill="#F3F3F1" width="12" height="12"/>
<rect x="432" y="34" fill="#F3F3F1" width="12" height="12"/>
<rect x="416" y="34" fill="#F3F3F1" width="12" height="12"/>
<rect x="432" y="18" fill="#F3F3F1" width="12" height="12"/>
<rect x="416" y="18" fill="#F3F3F1" width="12" height="12"/>
<rect x="464" y="66" fill="#F3F3F1" width="12" height="12"/>
<rect x="336" y="34" fill="#F3F3F1" width="12" height="12"/>
<rect x="336" y="50" fill="#F3F3F1" width="12" height="12"/>
<rect x="336" y="66" fill="#F3F3F1" width="12" height="12"/>
<rect x="336" y="2" fill="#F3F3F1" width="12" height="12"/>
<rect x="320" y="34" fill="#F3F3F1" width="12" height="12"/>
<rect x="320" y="18" fill="#F3F3F1" width="12" height="12"/>
<rect x="320" y="2" fill="#F3F3F1" width="12" height="12"/>
<rect x="304" y="34" fill="#F3F3F1" width="12" height="12"/>
<rect x="304" y="50" fill="#F3F3F1" width="12" height="12"/>
<rect x="304" y="66" fill="#F3F3F1" width="12" height="12"/>
<rect x="304" y="18" fill="#F3F3F1" width="12" height="12"/>
<rect x="304" y="2" fill="#F3F3F1" width="12" height="12"/>
<rect x="288" y="34" fill="#F3F3F1" width="12" height="12"/>
<rect x="288" y="50" fill="#F3F3F1" width="12" height="12"/>
<rect x="288" y="66" fill="#F3F3F1" width="12" height="12"/>
<rect x="288" y="2" fill="#F3F3F1" width="12" height="12"/>
<rect x="272" y="34" fill="#F3F3F1" width="12" height="12"/>
<rect x="272" y="66" fill="#F3F3F1" width="12" height="12"/>
<rect x="272" y="18" fill="#F3F3F1" width="12" height="12"/>
<rect x="256" y="34" fill="#F3F3F1" width="12" height="12"/>
<rect x="256" y="50" fill="#F3F3F1" width="12" height="12"/>
<rect x="256" y="2" fill="#F3F3F1" width="12" height="12"/>
<rect x="240" y="34" fill="#F3F3F1" width="12" height="12"/>
<rect x="240" y="66" fill="#F3F3F1" width="12" height="12"/>
<rect x="240" y="18" fill="#F3F3F1" width="12" height="12"/>
<rect x="224" y="34" fill="#F3F3F1" width="12" height="12"/>
<rect x="224" y="66" fill="#F3F3F1" width="12" height="12"/>
<rect x="208" y="34" fill="#F3F3F1" width="12" height="12"/>
<rect x="208" y="18" fill="#F3F3F1" width="12" height="12"/>
<rect x="208" y="2" fill="#F3F3F1" width="12" height="12"/>
<rect x="192" y="34" fill="#F3F3F1" width="12" height="12"/>
<rect x="192" y="50" fill="#F3F3F1" width="12" height="12"/>
<rect x="128" y="50" fill="#F3F3F1" width="12" height="12"/>
<rect x="144" y="66" fill="#F3F3F1" width="12" height="12"/>
<rect x="192" y="66" fill="#F3F3F1" width="12" height="12"/>
<rect x="192" y="2" fill="#F3F3F1" width="12" height="12"/>
<rect x="96" y="2" fill="#F3F3F1" width="12" height="12"/>
<rect x="80" y="2" fill="#F3F3F1" width="12" height="12"/>
<rect x="64" y="2" fill="#F3F3F1" width="12" height="12"/>
<rect x="32" y="2" fill="#F3F3F1" width="12" height="12"/>
<rect x="48" y="18" fill="#F3F3F1" width="12" height="12"/>
<rect x="80" y="34" fill="#F3F3F1" width="12" height="12"/>
<rect x="64" y="34" fill="#F3F3F1" width="12" height="12"/>
<rect x="96" y="50" fill="#F3F3F1" width="12" height="12"/>
<rect x="48" y="50" fill="#F3F3F1" width="12" height="12"/>
<rect x="64" y="66" fill="#F3F3F1" width="12" height="12"/>
<rect x="176" y="50" fill="#F3F3F1" width="12" height="12"/>
<rect x="176" y="18" fill="#F3F3F1" width="12" height="12"/>
<rect x="160" y="34" fill="#F3F3F1" width="12" height="12"/>
<rect x="144" y="2" fill="#F3F3F1" width="12" height="12"/>
<rect x="128" y="2" fill="#F3F3F1" width="12" height="12"/>
<rect x="480" y="66" fill="#F3F3F1" width="12" height="12"/>
</svg>
